<?xml version="1.0" encoding="UTF-8"?>
<svg width="800" height="450" viewBox="0 0 800 450" fill="none" xmlns="http://www.w3.org/2000/svg">
    <rect width="800" height="450" fill="#F2F2F2"/>
    <rect x="50" y="50" width="700" height="350" rx="4" fill="white" stroke="#CCCCCC" stroke-width="2"/>
    <rect x="70" y="80" width="300" height="40" rx="2" fill="#F2C811"/>
    <rect x="70" y="140" width="200" height="20" rx="2" fill="#E0E0E0"/>
    <rect x="70" y="170" width="150" height="20" rx="2" fill="#E0E0E0"/>
    <rect x="70" y="200" width="250" height="20" rx="2" fill="#E0E0E0"/>
    <rect x="400" y="80" width="150" height="150" rx="2" fill="#A3B9D9"/>
    <rect x="570" y="80" width="180" height="150" rx="2" fill="#D9D9D9"/>
    <rect x="400" y="250" width="350" height="100" rx="2" fill="#D9D9D9"/>
    <rect x="70" y="250" width="300" height="100" rx="2" fill="#7F7F7F"/>
    <rect x="70" y="370" width="300" height="20" rx="2" fill="#E0E0E0"/>
    <rect x="400" y="370" width="350" height="20" rx="2" fill="#E0E0E0"/>
    <text x="400" y="50" font-family="Arial" font-size="16" fill="#333333" text-anchor="middle">Power BI Dashboard Preview</text>
</svg>
